<?xml version="1.0" encoding="UTF-8"?>
<svg width="74.997" height="80" version="1.1" viewBox="0 0 19.843 21.167" xmlns="http://www.w3.org/2000/svg" xmlns:cc="http://creativecommons.org/ns#" xmlns:dc="http://purl.org/dc/elements/1.1/" xmlns:rdf="http://www.w3.org/1999/02/22-rdf-syntax-ns#">
 <metadata>
  <rdf:RDF>
   <cc:Work rdf:about="">
    <dc:format>image/svg+xml</dc:format>
    <dc:type rdf:resource="http://purl.org/dc/dcmitype/StillImage"/>
   </cc:Work>
  </rdf:RDF>
 </metadata>
 <g transform="matrix(.47614 0 0 .47613 302.2 -67.293)" fill="#ff8080" style="shape-inside:url(#rect21019);white-space:pre" aria-label="å·">
  <path d="m-634.6 185.55q0.39688 0.44649 1.7859-0.84336 1.3891-1.2402 2.9766-3.423 4.068-5.7051 5.0602-13.196 0.59531-4.7625 0.59531-15.18v-1.8356q0-5.2586 0.0992-6.2508 0.14883-0.99219 0.59531-1.3395 0.44648-0.39687 0.5457-0.49609 0.59532-0.5457 0.19844-0.74414-0.39687-0.19844-3.0262-0.49609-2.5797-0.34727-2.8277-0.19844-0.19843 0.14883-0.0496 0.94258 0.14882 0.79375 0.14882 0.94257 0.4961 3.3734 0.54571 10.468 0.0992 12.799-1.3395 19.596-1.4387 6.7965-5.2586 11.559-0.24805 0.29766-0.0496 0.49609zm20.141-42.069q-0.0496 0.0496-0.0496 0.19844 0 0.0992 0.0496 0.39688 0.74414 4.068 0.74414 15.379 0 11.311-0.29766 15.478-0.24805 4.1672-0.19844 4.7625 0.0992 0.5457 0.69453 0.79375 0.59532 0.19843 2.0836-0.24805 1.4883-0.49609 1.7859-1.0914 0.0992-0.14882-0.0992-4.2664-0.14883-4.1176-0.14883-16.073v-12.452q0.34726-0.74414 0.79375-0.99219 0.49609-0.29766 0.69453-0.64492 0.24805-0.34727 0.0992-0.44649-0.0992-0.0992-3.0758-0.49609-2.9766-0.39687-3.0758-0.29766zm18.306-1.7859q-2.927-0.44649-3.0758-0.34727-0.0992 0.0992 0.24805 2.282 0.34727 2.1332 0.44649 5.457 0.0992 3.3238 0.0496 15.28 0 11.956-0.24805 15.825t-0.19844 4.6137q0.0992 0.79375 0.84336 0.94258 0.74414 0.14883 1.8356-0.29766 1.0914-0.39687 1.7363-1.0914l0.29765-0.24805-0.0992-3.0758-0.14883-19.05q-0.14882-16.818 0-17.661 0.19844-0.89297 0.44649-0.99218 0.29766-0.0992 0.49609-0.19844 0.19844-0.0992 0.39688-0.44649 0.19844-0.34726 0.0496-0.44648-0.0992-0.14883-3.0758-0.5457z"/>
 </g>
</svg>
