<?xml version="1.0" encoding="UTF-8" standalone="no"?>
<svg
   width="28.124001"
   height="30"
   viewBox="0 0 7.4411418 7.9375002"
   version="1.1"
   id="svg8"
   inkscape:version="1.1 (c68e22c387, 2021-05-23)"
   sodipodi:docname="kawa_icon.svg"
   inkscape:export-filename="/mnt/414A675A24CFE369/just look at it/05/images/raw/threepartstri.png"
   inkscape:export-xdpi="72"
   inkscape:export-ydpi="72"
   xmlns:inkscape="http://www.inkscape.org/namespaces/inkscape"
   xmlns:sodipodi="http://sodipodi.sourceforge.net/DTD/sodipodi-0.dtd"
   xmlns="http://www.w3.org/2000/svg"
   xmlns:svg="http://www.w3.org/2000/svg"
   xmlns:rdf="http://www.w3.org/1999/02/22-rdf-syntax-ns#"
   xmlns:cc="http://creativecommons.org/ns#"
   xmlns:dc="http://purl.org/dc/elements/1.1/">
  <defs
     id="defs2">
    <rect
       x="-650.48151"
       y="130.73383"
       width="76.419571"
       height="75.024406"
       id="rect20965" />
  </defs>
  <sodipodi:namedview
     id="base"
     pagecolor="#2e2e2e"
     bordercolor="#666666"
     borderopacity="1.0"
     inkscape:pageopacity="0"
     inkscape:pageshadow="2"
     inkscape:zoom="5.6"
     inkscape:cx="3.3928572"
     inkscape:cy="7.7678572"
     inkscape:document-units="px"
     inkscape:current-layer="svg8"
     inkscape:document-rotation="0"
     showgrid="false"
     showborder="false"
     units="px"
     inkscape:window-width="1920"
     inkscape:window-height="1016"
     inkscape:window-x="0"
     inkscape:window-y="27"
     inkscape:window-maximized="1"
     showguides="true"
     inkscape:guide-bbox="true"
     inkscape:pagecheckerboard="0" />
  <metadata
     id="metadata5">
    <rdf:RDF>
      <cc:Work
         rdf:about="">
        <dc:format>image/svg+xml</dc:format>
        <dc:type
           rdf:resource="http://purl.org/dc/dcmitype/StillImage" />
      </cc:Work>
    </rdf:RDF>
  </metadata>
  <g
     aria-label="å·"
     transform="matrix(0.17855159,0,0,0.17854879,113.32399,-25.23479)"
     id="text20853"
     style="font-size:50.8px;line-height:1.25;white-space:pre;shape-inside:url(#rect20965);fill:#ff8080">
    <path
       d="m -634.59668,185.55273 q 0.39688,0.44649 1.78594,-0.84336 1.38906,-1.24023 2.97656,-3.42304 4.06797,-5.70508 5.06016,-13.1961 0.59531,-4.7625 0.59531,-15.18046 v -1.83555 q 0,-5.2586 0.0992,-6.25078 0.14883,-0.99219 0.59531,-1.33946 0.44648,-0.39687 0.5457,-0.49609 0.59532,-0.5457 0.19844,-0.74414 -0.39687,-0.19844 -3.02617,-0.49609 -2.57969,-0.34727 -2.82774,-0.19844 -0.19843,0.14883 -0.0496,0.94258 0.14882,0.79375 0.14882,0.94257 0.4961,3.37344 0.54571,10.46758 0.0992,12.79922 -1.33946,19.59571 -1.43867,6.79648 -5.25859,11.55898 -0.24805,0.29766 -0.0496,0.49609 z m 20.14141,-42.06875 q -0.0496,0.0496 -0.0496,0.19844 0,0.0992 0.0496,0.39688 0.74414,4.06797 0.74414,15.3789 0,11.31094 -0.29766,15.47813 -0.24805,4.16718 -0.19844,4.7625 0.0992,0.5457 0.69453,0.79375 0.59532,0.19843 2.0836,-0.24805 1.48828,-0.49609 1.78594,-1.09141 0.0992,-0.14882 -0.0992,-4.2664 -0.14883,-4.11758 -0.14883,-16.07344 v -12.45195 q 0.34726,-0.74414 0.79375,-0.99219 0.49609,-0.29766 0.69453,-0.64492 0.24805,-0.34727 0.0992,-0.44649 -0.0992,-0.0992 -3.07578,-0.49609 -2.97656,-0.39687 -3.07578,-0.29766 z m 18.30586,-1.78593 q -2.92696,-0.44649 -3.07579,-0.34727 -0.0992,0.0992 0.24805,2.28203 0.34727,2.13321 0.44649,5.45703 0.0992,3.32383 0.0496,15.27969 0,11.95586 -0.24805,15.82539 -0.24805,3.86953 -0.19844,4.61367 0.0992,0.79375 0.84336,0.94258 0.74414,0.14883 1.83555,-0.29766 1.0914,-0.39687 1.73633,-1.0914 l 0.29765,-0.24805 -0.0992,-3.07578 -0.14883,-19.05 q -0.14882,-16.81758 0,-17.66094 0.19844,-0.89297 0.44649,-0.99218 0.29766,-0.0992 0.49609,-0.19844 0.19844,-0.0992 0.39688,-0.44649 0.19844,-0.34726 0.0496,-0.44648 -0.0992,-0.14883 -3.07578,-0.5457 z"
       style="font-family:'Satsuki Gendai Mincho';-inkscape-font-specification:'Satsuki Gendai Mincho';text-align:center;text-anchor:middle"
       id="path2292" />
  </g>
</svg>
